<svg width="39" height="39" viewBox="0 0 39 39" fill="none" xmlns="http://www.w3.org/2000/svg">
<path d="M34.45 0.149902H4.35002C1.98502 0.149902 0.0500183 2.0849 0.0500183 4.4499V34.5499C0.0500183 36.917 1.98502 38.8499 4.35002 38.8499H19.4V23.7999H15.1V18.4786H19.4V14.0711C19.4 9.41855 22.0058 6.15055 27.4969 6.15055L31.3734 6.15485V11.7556H28.7998C26.6627 11.7556 25.85 13.3595 25.85 14.8473V18.4808H31.3712L30.15 23.7999H25.85V38.8499H34.45C36.815 38.8499 38.75 36.917 38.75 34.5499V4.4499C38.75 2.0849 36.815 0.149902 34.45 0.149902Z" fill="white"/>
</svg>
