<svg width="223" height="227" viewBox="0 0 223 227" fill="none" xmlns="http://www.w3.org/2000/svg">
<ellipse cx="106.5" cy="110" rx="106.5" ry="110" fill="#2A87DD" fill-opacity="0.5"/>
<path d="M56.0938 41.625C54.2135 41.625 52.6875 43.053 52.6875 44.8125V54.375H42.4688C40.5885 54.375 39.0625 55.803 39.0625 57.5625V201H28.8438C26.9635 201 25.4375 202.428 25.4375 204.188C25.4375 205.947 26.9635 207.375 28.8438 207.375H42.4688H83.3438H124.219H158.281H199.156C201.036 207.375 202.562 205.947 202.562 204.188C202.562 202.428 201.036 201 199.156 201H161.688V86.25H168.5V121.312C168.5 123.072 170.026 124.5 171.906 124.5H199.156C201.036 124.5 202.562 123.072 202.562 121.312V63.9375C202.562 62.178 201.036 60.75 199.156 60.75H171.906C170.026 60.75 168.5 62.178 168.5 63.9375V67.125H161.688V57.5625C161.688 55.803 160.161 54.375 158.281 54.375H148.062V44.8125C148.062 43.053 146.536 41.625 144.656 41.625H56.0938ZM59.5 48H141.25V54.375H59.5V48ZM45.875 60.75H56.0938H144.656H154.875V70.3125V83.0625V201H127.625V169.125H131.031C132.911 169.125 134.438 167.697 134.438 165.938C134.438 164.178 132.911 162.75 131.031 162.75H124.219H83.3438H76.5312C74.651 162.75 73.125 164.178 73.125 165.938C73.125 167.697 74.651 169.125 76.5312 169.125H79.9375V201H45.875V60.75ZM56.0938 67.125C54.2135 67.125 52.6875 68.553 52.6875 70.3125V89.4375C52.6875 91.197 54.2135 92.625 56.0938 92.625H76.5312C78.4115 92.625 79.9375 91.197 79.9375 89.4375V70.3125C79.9375 68.553 78.4115 67.125 76.5312 67.125H56.0938ZM90.1562 67.125C88.276 67.125 86.75 68.553 86.75 70.3125V89.4375C86.75 91.197 88.276 92.625 90.1562 92.625H110.594C112.474 92.625 114 91.197 114 89.4375V70.3125C114 68.553 112.474 67.125 110.594 67.125H90.1562ZM124.219 67.125C122.339 67.125 120.812 68.553 120.812 70.3125V89.4375C120.812 91.197 122.339 92.625 124.219 92.625H144.656C146.536 92.625 148.062 91.197 148.062 89.4375V70.3125C148.062 68.553 146.536 67.125 144.656 67.125H124.219ZM175.312 67.125H195.75V118.125H175.312V83.0625V70.3125V67.125ZM59.5 73.5H73.125V86.25H59.5V73.5ZM93.5625 73.5H107.188V86.25H93.5625V73.5ZM127.625 73.5H141.25V86.25H127.625V73.5ZM161.688 73.5H168.5V79.875H161.688V73.5ZM185.531 73.5C183.651 73.5 182.125 74.928 182.125 76.6875V108.562C182.125 110.322 183.651 111.75 185.531 111.75C187.411 111.75 188.938 110.322 188.938 108.562V76.6875C188.938 74.928 187.411 73.5 185.531 73.5ZM56.0938 99C54.2135 99 52.6875 100.428 52.6875 102.188V121.312C52.6875 123.072 54.2135 124.5 56.0938 124.5H76.5312C78.4115 124.5 79.9375 123.072 79.9375 121.312V102.188C79.9375 100.428 78.4115 99 76.5312 99H56.0938ZM90.1562 99C88.276 99 86.75 100.428 86.75 102.188V121.312C86.75 123.072 88.276 124.5 90.1562 124.5H110.594C112.474 124.5 114 123.072 114 121.312V102.188C114 100.428 112.474 99 110.594 99H90.1562ZM124.219 99C122.339 99 120.812 100.428 120.812 102.188V121.312C120.812 123.072 122.339 124.5 124.219 124.5H144.656C146.536 124.5 148.062 123.072 148.062 121.312V102.188C148.062 100.428 146.536 99 144.656 99H124.219ZM59.5 105.375H73.125V118.125H59.5V105.375ZM93.5625 105.375H107.188V118.125H93.5625V105.375ZM127.625 105.375H141.25V118.125H127.625V105.375ZM56.0938 130.875C54.2135 130.875 52.6875 132.303 52.6875 134.062V153.188C52.6875 154.947 54.2135 156.375 56.0938 156.375H76.5312C78.4115 156.375 79.9375 154.947 79.9375 153.188V134.062C79.9375 132.303 78.4115 130.875 76.5312 130.875H56.0938ZM90.1562 130.875C88.276 130.875 86.75 132.303 86.75 134.062V153.188C86.75 154.947 88.276 156.375 90.1562 156.375H110.594C112.474 156.375 114 154.947 114 153.188V134.062C114 132.303 112.474 130.875 110.594 130.875H90.1562ZM124.219 130.875C122.339 130.875 120.812 132.303 120.812 134.062V153.188C120.812 154.947 122.339 156.375 124.219 156.375H144.656C146.536 156.375 148.062 154.947 148.062 153.188V134.062C148.062 132.303 146.536 130.875 144.656 130.875H124.219ZM59.5 137.25H73.125V150H59.5V137.25ZM93.5625 137.25H107.188V150H93.5625V137.25ZM127.625 137.25H141.25V150H127.625V137.25ZM86.75 169.125H100.375V201H86.75V169.125ZM107.188 169.125H120.812V201H107.188V169.125Z" fill="#FF4D00"/>
</svg>
