<svg width="39" height="39" viewBox="0 0 39 39" fill="none" xmlns="http://www.w3.org/2000/svg">
<path fill-rule="evenodd" clip-rule="evenodd" d="M0 17.3499C0 9.24225 -2.563e-07 5.18735 2.5198 2.6697C5.03745 0.149902 9.09235 0.149902 17.2 0.149902H21.5C29.6076 0.149902 33.6625 0.149902 36.1802 2.6697C38.7 5.18735 38.7 9.24225 38.7 17.3499V21.6499C38.7 29.7575 38.7 33.8124 36.1802 36.3301C33.6625 38.8499 29.6076 38.8499 21.5 38.8499H17.2C9.09235 38.8499 5.03745 38.8499 2.5198 36.3301C-2.563e-07 33.8124 0 29.7575 0 21.6499V17.3499ZM32.25 9.8249C32.25 10.6802 31.9102 11.5005 31.3054 12.1053C30.7006 12.7101 29.8803 13.0499 29.025 13.0499C28.1697 13.0499 27.3494 12.7101 26.7446 12.1053C26.1398 11.5005 25.8 10.6802 25.8 9.8249C25.8 8.96958 26.1398 8.14929 26.7446 7.54448C27.3494 6.93968 28.1697 6.5999 29.025 6.5999C29.8803 6.5999 30.7006 6.93968 31.3054 7.54448C31.9102 8.14929 32.25 8.96958 32.25 9.8249ZM23.65 21.6499C23.65 22.7903 23.197 23.884 22.3906 24.6905C21.5841 25.4969 20.4904 25.9499 19.35 25.9499C18.2096 25.9499 17.1158 25.4969 16.3094 24.6905C15.503 23.884 15.05 22.7903 15.05 21.6499C15.05 20.5095 15.503 19.4157 16.3094 18.6093C17.1158 17.8029 18.2096 17.3499 19.35 17.3499C20.4904 17.3499 21.5841 17.8029 22.3906 18.6093C23.197 19.4157 23.65 20.5095 23.65 21.6499ZM27.95 21.6499C27.95 23.9308 27.0439 26.1182 25.4311 27.731C23.8183 29.3438 21.6309 30.2499 19.35 30.2499C17.0691 30.2499 14.8817 29.3438 13.2689 27.731C11.6561 26.1182 10.75 23.9308 10.75 21.6499C10.75 19.369 11.6561 17.1816 13.2689 15.5688C14.8817 13.956 17.0691 13.0499 19.35 13.0499C21.6309 13.0499 23.8183 13.956 25.4311 15.5688C27.0439 17.1816 27.95 19.369 27.95 21.6499Z" fill="white"/>
</svg>
