<?xml version="1.0" encoding="utf-8"?>
<!-- Generator: Adobe Illustrator 23.0.5, SVG Export Plug-In . SVG Version: 6.00 Build 0)  -->
<svg version="1.1" id="Capa_1" xmlns="http://www.w3.org/2000/svg" xmlns:xlink="http://www.w3.org/1999/xlink" x="0px" y="0px"
	 viewBox="0 0 1366 768" style="enable-background:new 0 0 1366 768;" xml:space="preserve">
<style type="text/css">
	.st0{fill:#FFFFFF;}
	.st1{fill:#FF4D00;}
	.st2{fill:#182A8A;}
	.st3{fill:none;stroke:#FFFFFF;stroke-width:6;}
	.st4{fill:none;stroke:#000000;}
	.st5{fill:#1C6AA3;stroke:#FFFFFF;stroke-width:6;}
	.st6{fill:#182A8A;stroke:#FFFFFF;stroke-width:6;}
	.st7{fill:#1B1464;stroke:#FFFFFF;stroke-width:6;stroke-miterlimit:10;}
	.st8{fill:#2E3192;stroke:#FFFFFF;stroke-width:6;stroke-miterlimit:10;}
</style>
<g>
	<g>
		<g>
			<g>
				<path class="st0" d="M672.05,377.92V132.97h-5.08V375.5C668.66,376.31,670.36,377.12,672.05,377.92z"/>
			</g>
			<g>
				<path class="st0" d="M672.05,387.34c-1.69-0.8-3.38-1.62-5.08-2.44v7.97c1.69,0.83,3.38,1.67,5.08,2.5V387.34z"/>
			</g>
			<g>
				<path class="st0" d="M666.97,402.39v8.03h5.08v-5.46C670.36,404.09,668.67,403.24,666.97,402.39z"/>
			</g>
		</g>
		<g>
			<g>
				<path class="st0" d="M661.66,382.32c-1.95-0.96-3.91-1.91-5.86-2.87l2.05,8.92c1.95,0.97,3.92,1.95,5.88,2.91L661.66,382.32z"/>
			</g>
			<g>
				<path class="st0" d="M654.73,369.53c1.5,0.74,3,1.47,4.5,2.21l-52.96-230.76l-4.95,1.13l52.04,226.74
					C653.82,369.09,654.28,369.31,654.73,369.53z"/>
			</g>
			<g>
				<path class="st0" d="M663.27,400.52c-1-0.5-1.99-0.99-2.99-1.49l3.1,13.51l4.95-1.13l-2.17-9.42
					C665.21,401.5,664.24,401,663.27,400.52z"/>
			</g>
		</g>
		<g>
			<g>
				<path class="st0" d="M648.95,376.1c-2.46-1.2-4.95-2.41-7.48-3.59l5.03,10.04c2.54,1.35,5.1,2.67,7.67,3.98L648.95,376.1z"/>
			</g>
			<g>
				<path class="st0" d="M652.92,395.33l9.66,19.28l4.53-2.28l-6.61-13.2C657.97,397.88,655.44,396.61,652.92,395.33z"/>
			</g>
			<g>
				<path class="st0" d="M642.81,363.85L542.79,164.3l-4.53,2.28l97.32,194.17C638.01,361.73,640.42,362.77,642.81,363.85z"/>
			</g>
		</g>
		<g>
			<g>
				<path class="st0" d="M600.72,360.3c-0.98-1.01-1.29-2.37-1.09-3.64L442.38,239l-3.04,4.06l222.14,166.22l3.04-4.06l-16.64-12.45
					C630.82,383.95,614.31,374.22,600.72,360.3z"/>
			</g>
		</g>
		<g>
			<g>
				<path class="st0" d="M627.4,357.71L488.92,193.65l-3.87,3.27L618.65,355.2C621.59,355.91,624.51,356.74,627.4,357.71z"/>
			</g>
			<g>
				<path class="st0" d="M638.9,371.33c-3.36-1.52-6.78-2.97-10.24-4.26l8.84,10.47c4.05,2.36,8.18,4.6,12.36,6.77L638.9,371.33z"/>
			</g>
			<g>
				<path class="st0" d="M663.27,400.52c-3.68-1.84-7.37-3.66-11.04-5.52l11.77,13.95l3.87-3.27l-4.14-4.91
					C663.58,400.68,663.43,400.59,663.27,400.52z"/>
			</g>
		</g>
		<g>
			<g>
				<path class="st0" d="M674.37,388.43c-1.56-0.74-3.13-1.48-4.69-2.23l-1.65,7.19c1.56,0.77,3.12,1.54,4.68,2.31L674.37,388.43z"
					/>
			</g>
			<g>
				<path class="st0" d="M666.06,401.93l-2.56,11.17l4.95,1.13l2.28-9.95C669.17,403.5,667.62,402.71,666.06,401.93z"/>
			</g>
			<g>
				<path class="st0" d="M676.32,379.94l54.2-236.12l-4.95-1.13l-53.94,235.04C673.18,378.47,674.75,379.2,676.32,379.94z"/>
			</g>
		</g>
		<g>
			<g>
				<path class="st0" d="M681.56,391.76c-1.54-0.7-3.08-1.4-4.61-2.12l-3.27,6.54c1.51,0.75,3.03,1.51,4.53,2.28L681.56,391.76z"/>
			</g>
			<g>
				<path class="st0" d="M669.83,403.83l-5.11,10.19l4.53,2.28l5.09-10.16C672.85,405.37,671.34,404.6,669.83,403.83z"/>
			</g>
			<g>
				<path class="st0" d="M685.39,384.12l108.19-215.86l-4.53-2.28L680.77,382.02C682.3,382.72,683.84,383.42,685.39,384.12z"/>
			</g>
		</g>
		<g>
			<g>
				<path class="st0" d="M693.59,397.04c-1.8-0.76-3.59-1.52-5.39-2.31l-7,5.24c1.67,0.85,3.32,1.73,4.98,2.61L693.59,397.04z"/>
			</g>
			<g>
				<path class="st0" d="M701.41,391.18l197.8-148.2l-3.05-4.06L696.04,388.87C697.82,389.65,699.62,390.42,701.41,391.18z"/>
			</g>
			<g>
				<path class="st0" d="M675.04,406.51l2.13,2.84l1.36-1.02C677.37,407.72,676.2,407.11,675.04,406.51z"/>
			</g>
		</g>
		<g>
			<g>
				<path class="st0" d="M682.24,392.08l-4.98,5.9c0.97,0.49,1.95,0.98,2.93,1.48c0.58,0.3,1.14,0.59,1.72,0.89l5.16-6.12
					C685.45,393.52,683.84,392.8,682.24,392.08z"/>
			</g>
			<g>
				<path class="st0" d="M692.79,387.45l156.54-185.44l-3.87-3.27L687.96,385.3C689.57,386.02,691.18,386.74,692.79,387.45z"/>
			</g>
			<g>
				<path class="st0" d="M671.58,404.71l-5.08,6.02l3.87,3.27l5.83-6.91C674.66,406.3,673.12,405.51,671.58,404.71z"/>
			</g>
		</g>
		<g>
			<g>
				<path class="st0" d="M714.06,396.42l217.46-100.05l-2.12-4.61L707.64,393.79C709.78,394.67,711.92,395.54,714.06,396.42z"/>
			</g>
			<g>
				<path class="st0" d="M703.64,401.21c-2.13-0.88-4.26-1.76-6.39-2.65l-9.98,4.59c1.86,1,3.72,2,5.57,3.02L703.64,401.21z"/>
			</g>
			<g>
				<path class="st0" d="M677.37,407.72l-0.02,0.01l2.12,4.61l3.58-1.65C681.16,409.69,679.27,408.71,677.37,407.72z"/>
			</g>
		</g>
		<g>
			<g>
				<path class="st0" d="M714.58,404.39l231.09-62.44l-1.33-4.9l-235.65,63.67C710.65,401.95,712.62,403.16,714.58,404.39z"/>
			</g>
			<g>
				<path class="st0" d="M703.52,407.37c-1.96-1.22-3.91-2.44-5.86-3.68l-10.61,2.87c1.67,1.29,3.34,2.6,4.99,3.91L703.52,407.37z"
					/>
			</g>
			<g>
				<path class="st0" d="M676.53,409.41l-0.02,0.01l1.33,4.9l3.8-1.03C679.94,411.99,678.23,410.7,676.53,409.41z"/>
			</g>
		</g>
		<g>
			<g>
				<path class="st0" d="M720.25,411.46l237.06-33.18l-0.71-5.03l-241.75,33.83C716.65,408.55,718.45,410,720.25,411.46z"/>
			</g>
			<g>
				<path class="st0" d="M708.9,413.04c-1.79-1.46-3.58-2.91-5.36-4.38l-10.88,1.52c1.49,1.49,2.99,2.99,4.47,4.5L708.9,413.04z"/>
			</g>
			<g>
				<path class="st0" d="M681.86,411.7l-0.02,0l0.71,5.03l3.9-0.55C684.92,414.68,683.39,413.2,681.86,411.7z"/>
			</g>
		</g>
		<g>
			<g>
				<path class="st0" d="M709.73,418.1l239.36,2.79l0.06-5.08l-244.09-2.84C706.61,414.68,708.17,416.39,709.73,418.1z"/>
			</g>
			<g>
				<path class="st0" d="M698.27,417.96c-1.55-1.71-3.1-3.42-4.64-5.13l-10.99-0.13c1.25,1.7,2.5,3.41,3.74,5.12L698.27,417.96z"/>
			</g>
			<g>
				<path class="st0" d="M671.74,412.58l-0.02,0l-0.06,5.08l3.94,0.04C674.32,415.98,673.03,414.29,671.74,412.58z"/>
			</g>
		</g>
		<g>
			<g>
				<path class="st0" d="M673.95,202.75c130.6,0,236.85,106.25,236.85,236.85c0,14.74-1.38,29.39-4.07,43.75
					c1.55,0.94,3.08,1.9,4.62,2.86c2.99-15.29,4.53-30.9,4.53-46.62c0-64.62-25.17-125.37-70.86-171.06
					c-45.69-45.69-106.45-70.86-171.06-70.86s-125.37,25.17-171.06,70.86c-45.69,45.69-70.86,106.45-70.86,171.06
					c0,45.36,12.63,89.59,36.53,127.89l4.31-2.69c-23.4-37.49-35.76-80.79-35.76-125.2C437.11,309,543.35,202.75,673.95,202.75z"/>
			</g>
			<g>
				<path class="st0" d="M909.46,495.01c-1.51-0.96-3.04-1.9-4.56-2.85c-3.11,13.73-7.44,27.15-12.95,40.1
					c1.45,0.91,2.9,1.82,4.35,2.74C901.84,522.09,906.25,508.71,909.46,495.01z"/>
			</g>
			<g>
				<path class="st0" d="M890.28,547.98c0.87-1.74,1.73-3.49,2.55-5.25c-1.44-0.91-2.88-1.83-4.32-2.73
					c-1.18,2.54-2.43,5.05-3.7,7.55C886.63,547.74,888.46,547.89,890.28,547.98z"/>
			</g>
		</g>
		<g>
			<g>
				<path class="st0" d="M920.77,545.15c3.5-0.77,7.03-1.37,10.6-1.68c1.09-0.19,2.19-0.38,3.28-0.56
					c3.16-7.98,5.96-16.1,8.37-24.34c-9.47-7.42-19.32-14.38-29.42-20.92c-3.3,13.65-7.75,27.01-13.31,39.88
					c4.38,2.79,8.73,5.64,13.05,8.51C915.82,545.71,918.29,545.39,920.77,545.15z"/>
			</g>
			<g>
				<path class="st0" d="M900.48,548.04c0.17-0.03,0.35-0.06,0.52-0.08c-1.4-0.91-2.79-1.82-4.19-2.72
					c-0.46,0.96-0.94,1.91-1.4,2.88C897.12,548.12,898.83,548.09,900.48,548.04z"/>
			</g>
			<g>
				<path class="st0" d="M673.95,193.02c135.96,0,246.57,110.62,246.57,246.57c0,16.59-1.68,33.12-4.97,49.28
					c10.24,6.56,20.23,13.53,29.88,20.93c5.89-22.85,8.92-46.47,8.92-70.21c0-74.9-29.17-145.31-82.13-198.28
					c-52.97-52.96-123.39-82.13-198.28-82.13s-145.31,29.17-198.28,82.13c-52.96,52.96-82.13,123.38-82.13,198.28
					c0,47.08,11.89,93.65,34.4,134.68L457.61,558c-19.78-36.06-30.23-77-30.23-118.41C427.38,303.64,537.99,193.02,673.95,193.02z"
					/>
			</g>
		</g>
		<g>
			<g>
				<path class="st0" d="M674.16,151.57c155.32,0,281.68,129.12,281.68,287.81c0,24.23-3,48.32-8.85,71.63
					c2.44,1.89,4.86,3.81,7.26,5.75c6.63-25.13,10.06-51.18,10.06-77.38c0-79.12-30.17-153.51-84.94-209.47
					c-26.65-27.21-57.67-48.58-92.23-63.51c-35.78-15.46-73.79-23.3-112.97-23.3c-39.18,0-77.19,7.84-112.97,23.3
					c-34.55,14.93-65.58,36.3-92.23,63.51c-54.78,55.96-84.94,130.34-84.94,209.47c0,47.45,11.25,94.62,32.53,136.44l7.54-3.84
					c-20.68-40.63-31.61-86.48-31.61-132.6C392.49,280.69,518.84,151.57,674.16,151.57z"/>
			</g>
			<g>
				<path class="st0" d="M946.55,541.53c1.88-5.23,3.61-10.51,5.2-15.84c-1.85-1.58-3.71-3.15-5.62-4.67c-0.49-0.4-1-0.78-1.5-1.18
					c-2.17,7.66-4.68,15.23-7.47,22.69C940.27,542.08,943.4,541.73,946.55,541.53z"/>
			</g>
		</g>
		<g>
			<g>
				<path class="st0" d="M682.58,190.91H662.5c-0.93,0-1.69-0.76-1.69-1.69v-54.98c0-0.93,0.76-1.69,1.69-1.69h20.08
					c0.93,0,1.69,0.76,1.69,1.69v54.98C684.27,190.15,683.51,190.91,682.58,190.91z"/>
			</g>
			<g>
				<path class="st0" d="M682.58,191.33H662.5c-1.17,0-2.11-0.95-2.11-2.11v-54.98c0-1.17,0.95-2.11,2.11-2.11h20.08
					c1.17,0,2.11,0.95,2.11,2.11v54.98C684.7,190.38,683.75,191.33,682.58,191.33z M662.5,132.97c-0.7,0-1.27,0.57-1.27,1.27v54.98
					c0,0.7,0.57,1.27,1.27,1.27h20.08c0.7,0,1.27-0.57,1.27-1.27v-54.98c0-0.7-0.57-1.27-1.27-1.27H662.5z"/>
			</g>
		</g>
		<g>
			<g>
				<path class="st0" d="M631.34,193.84l-19.57,4.49c-0.91,0.21-1.82-0.36-2.03-1.27l-12.3-53.59c-0.21-0.91,0.36-1.82,1.27-2.03
					l19.57-4.49c0.91-0.21,1.82,0.36,2.03,1.27l12.3,53.59C632.82,192.73,632.24,193.63,631.34,193.84z"/>
			</g>
			<g>
				<path class="st0" d="M611.37,198.8c-0.39,0-0.78-0.11-1.12-0.32c-0.48-0.3-0.81-0.77-0.94-1.32l-12.3-53.59
					c-0.26-1.13,0.45-2.28,1.59-2.54l19.57-4.49c0.55-0.13,1.12-0.03,1.6,0.27c0.48,0.3,0.81,0.77,0.94,1.32l12.3,53.59
					c0.26,1.13-0.45,2.28-1.59,2.54l-19.57,4.49C611.7,198.78,611.54,198.8,611.37,198.8z M618.66,137.34
					c-0.09,0-0.19,0.01-0.29,0.03l-19.57,4.49c-0.33,0.08-0.61,0.28-0.8,0.57c-0.18,0.29-0.24,0.63-0.16,0.96l12.3,53.59
					c0.15,0.69,0.84,1.11,1.52,0.96l19.57-4.49c0.33-0.08,0.61-0.28,0.8-0.57c0.18-0.29,0.24-0.63,0.16-0.96l-12.3-53.59
					c-0.08-0.33-0.28-0.61-0.57-0.8C619.12,137.41,618.89,137.34,618.66,137.34z"/>
			</g>
		</g>
		<g>
			<g>
				<path class="st0" d="M451.52,336.21L445.3,356c-0.28,0.89-1.23,1.39-2.12,1.11l-52.93-16.64c-0.89-0.28-1.39-1.23-1.11-2.12
					l6.22-19.79c0.28-0.89,1.23-1.39,2.12-1.11l52.93,16.64C451.3,334.37,451.8,335.32,451.52,336.21z"/>
			</g>
			<g>
				<path class="st0" d="M443.69,357.61c-0.21,0-0.43-0.03-0.63-0.1l-52.93-16.64c-0.54-0.17-0.98-0.54-1.24-1.04
					c-0.26-0.5-0.31-1.07-0.14-1.62l6.22-19.79c0.35-1.11,1.54-1.73,2.65-1.39l52.93,16.64c0.54,0.17,0.98,0.54,1.24,1.04
					c0.26,0.5,0.31,1.07,0.14,1.62l-6.22,19.79c-0.17,0.54-0.54,0.98-1.04,1.24C444.36,357.52,444.02,357.61,443.69,357.61z
					 M396.98,317.8c-0.54,0-1.04,0.35-1.21,0.89l-6.22,19.79c-0.21,0.67,0.16,1.38,0.83,1.59l52.93,16.64
					c0.32,0.1,0.67,0.07,0.96-0.08c0.3-0.16,0.52-0.42,0.63-0.74l6.22-19.79c0.21-0.67-0.16-1.38-0.83-1.59l-52.93-16.64
					C397.23,317.82,397.1,317.8,396.98,317.8z"/>
			</g>
		</g>
		<g>
			<g>
				<path class="st0" d="M576.89,208.71l-18.62,7.52c-0.86,0.35-1.85-0.07-2.2-0.94l-20.59-50.98c-0.35-0.86,0.07-1.85,0.94-2.2
					l18.62-7.52c0.86-0.35,1.85,0.07,2.2,0.94l20.59,50.98C578.17,207.38,577.76,208.36,576.89,208.71z"/>
			</g>
			<g>
				<path class="st0" d="M557.64,216.78c-0.84,0-1.63-0.5-1.96-1.32l-20.59-50.98c-0.21-0.52-0.2-1.1,0.02-1.62
					c0.22-0.52,0.63-0.92,1.16-1.13l18.62-7.52c1.08-0.43,2.32,0.08,2.75,1.17l20.59,50.98c0.21,0.52,0.2,1.1-0.02,1.62
					c-0.22,0.52-0.63,0.92-1.16,1.13l-18.62,7.52C558.17,216.72,557.9,216.78,557.64,216.78z M555.67,154.89
					c-0.16,0-0.32,0.03-0.47,0.09l-18.62,7.52c-0.31,0.13-0.56,0.37-0.69,0.68c-0.14,0.31-0.14,0.66-0.01,0.97l20.59,50.98
					c0.26,0.65,1,0.96,1.65,0.7l18.62-7.52c0.31-0.13,0.56-0.37,0.69-0.68c0.14-0.31,0.14-0.66,0.01-0.97l-20.59-50.98
					C556.65,155.19,556.17,154.89,555.67,154.89z"/>
			</g>
		</g>
		<g>
			<g>
				<path class="st0" d="M534.28,233l-16.07,12.05c-0.74,0.56-1.81,0.41-2.37-0.34l-34.1-45.51c-0.56-0.74-0.41-1.81,0.34-2.37
					l16.07-12.05c0.74-0.56,1.81-0.41,2.37,0.34l34.1,45.51C535.18,231.38,535.03,232.44,534.28,233z"/>
			</g>
			<g>
				<path class="st0" d="M517.19,245.8c-0.64,0-1.28-0.3-1.69-0.85l-34.1-45.51c-0.34-0.45-0.48-1.01-0.4-1.56s0.37-1.06,0.83-1.4
					l16.07-12.05c0.45-0.34,1.01-0.48,1.56-0.4c0.56,0.08,1.06,0.37,1.4,0.83l34.1,45.51c0.7,0.93,0.51,2.26-0.42,2.96l-16.07,12.05
					C518.08,245.66,517.63,245.8,517.19,245.8z M499.16,184.86c-0.27,0-0.53,0.08-0.76,0.25l-16.07,12.05
					c-0.27,0.2-0.45,0.5-0.5,0.84s0.03,0.67,0.24,0.94l34.1,45.51c0.42,0.56,1.22,0.68,1.78,0.25l16.07-12.05
					c0.56-0.42,0.68-1.22,0.25-1.78l-34.1-45.51c-0.2-0.27-0.5-0.45-0.84-0.5C499.29,184.87,499.23,184.86,499.16,184.86z"/>
			</g>
		</g>
		<g>
			<g>
				<path class="st0" d="M495.36,265.32l-12.95,15.34c-0.6,0.71-1.67,0.8-2.39,0.2l-43.3-36.55c-0.71-0.6-0.8-1.67-0.2-2.39
					l12.95-15.34c0.6-0.71,1.67-0.8,2.39-0.2l43.3,36.55C495.88,263.54,495.96,264.6,495.36,265.32z"/>
			</g>
			<g>
				<path class="st0" d="M481.11,281.69c-0.5,0-0.97-0.18-1.36-0.5l-43.3-36.55c-0.43-0.36-0.69-0.87-0.74-1.44s0.13-1.11,0.49-1.54
					l12.95-15.34c0.36-0.43,0.87-0.69,1.44-0.74c0.56-0.05,1.11,0.13,1.54,0.49l43.3,36.55c0.89,0.75,1.01,2.09,0.25,2.98l0,0
					l-12.95,15.34c-0.36,0.43-0.87,0.69-1.44,0.74C481.24,281.69,481.18,281.69,481.11,281.69z M450.77,226.41
					c-0.36,0-0.72,0.15-0.97,0.45l-12.95,15.34c-0.22,0.26-0.32,0.58-0.3,0.92c0.03,0.34,0.19,0.64,0.45,0.86l43.3,36.55
					c0.26,0.22,0.58,0.32,0.92,0.3c0.34-0.03,0.64-0.19,0.86-0.45l12.95-15.34l0,0c0.22-0.26,0.32-0.58,0.3-0.92
					c-0.03-0.34-0.19-0.64-0.45-0.86l-43.3-36.55C451.35,226.5,451.05,226.41,450.77,226.41z"/>
			</g>
		</g>
		<g>
			<g>
				<path class="st0" d="M468.37,299.85l-9.89,17.13c-0.47,0.81-1.51,1.08-2.31,0.62l-48.43-27.96c-0.81-0.47-1.08-1.51-0.62-2.31
					l9.89-17.13c0.47-0.81,1.51-1.08,2.31-0.62l48.43,27.96C468.56,298.01,468.83,299.04,468.37,299.85z"/>
			</g>
			<g>
				<path class="st0" d="M457.02,318.24c-0.36,0-0.73-0.09-1.06-0.29L407.53,290c-1.01-0.58-1.35-1.88-0.78-2.89l9.89-17.13
					c0.28-0.49,0.74-0.84,1.29-0.98c0.55-0.14,1.12-0.07,1.61,0.21l48.43,27.96c1.01,0.58,1.35,1.88,0.78,2.89l-0.36-0.21l0.36,0.21
					l-9.89,17.13c-0.28,0.49-0.74,0.84-1.29,0.98C457.38,318.21,457.2,318.24,457.02,318.24z M418.48,269.77
					c-0.44,0-0.86,0.23-1.1,0.63l-9.89,17.13c-0.35,0.61-0.14,1.39,0.47,1.73l48.43,27.96c0.61,0.36,1.39,0.14,1.73-0.47l9.89-17.13
					c0.35-0.61,0.14-1.39-0.47-1.73l-48.43-27.96C418.91,269.83,418.69,269.77,418.48,269.77z"/>
			</g>
		</g>
		<g>
			<g>
				<path class="st0" d="M913.08,363.67l1.02,20.06c0.05,0.93,0.85,1.65,1.78,1.61l49.1-2.5c0.93-0.05,1.65-0.85,1.61-1.78
					L965.57,361c-0.05-0.93-0.85-1.65-1.78-1.61l-49.1,2.5C913.75,361.95,913.03,362.74,913.08,363.67z"/>
			</g>
			<g>
				<path class="st0" d="M915.79,385.76c-1.12,0-2.06-0.88-2.11-2l-1.02-20.06c-0.03-0.57,0.16-1.11,0.54-1.52
					c0.38-0.41,0.9-0.67,1.46-0.69l49.1-2.5c0.58-0.03,1.11,0.16,1.52,0.54c0.42,0.38,0.67,0.9,0.69,1.46l1.02,20.06
					c0.06,1.17-0.84,2.16-2,2.22l-49.1,2.5C915.87,385.76,915.83,385.76,915.79,385.76z M963.88,359.81c-0.03,0-0.04,0-0.07,0
					l-49.1,2.5c-0.34,0.02-0.65,0.17-0.88,0.41c-0.23,0.25-0.35,0.58-0.32,0.91l0,0l1.02,20.06c0.03,0.7,0.64,1.25,1.34,1.2
					l49.1-2.5c0.7-0.03,1.23-0.63,1.2-1.33l-1.02-20.06c-0.02-0.34-0.17-0.65-0.41-0.88C964.49,359.92,964.19,359.81,963.88,359.81z
					"/>
			</g>
		</g>
		<g>
			<g>
				<path class="st0" d="M716.86,195.82l19.85,3.05c0.92,0.14,1.78-0.49,1.93-1.41l8.55-55.67c0.14-0.92-0.49-1.78-1.41-1.93
					l-19.85-3.05c-0.92-0.14-1.78,0.49-1.93,1.41l-8.55,55.67C715.3,194.82,715.93,195.68,716.86,195.82z"/>
			</g>
			<g>
				<path class="st0" d="M736.96,199.32c-0.11,0-0.21-0.01-0.32-0.03l-19.85-3.05c-0.56-0.08-1.05-0.38-1.39-0.84
					c-0.34-0.46-0.47-1.02-0.39-1.57l8.55-55.67c0.08-0.56,0.38-1.05,0.84-1.39c0.46-0.34,1.02-0.47,1.57-0.39l19.85,3.05
					c0.56,0.08,1.05,0.38,1.39,0.84c0.34,0.46,0.47,1.02,0.39,1.57l-8.55,55.67C738.89,198.56,737.99,199.32,736.96,199.32z
					 M725.66,137.21c-0.27,0-0.52,0.08-0.74,0.25c-0.27,0.2-0.45,0.5-0.5,0.83l-8.55,55.67c-0.05,0.34,0.03,0.67,0.23,0.95
					c0.2,0.27,0.49,0.45,0.83,0.51l19.85,3.05c0.69,0.1,1.34-0.37,1.45-1.07l8.55-55.67c0.05-0.34-0.03-0.67-0.23-0.95
					c-0.2-0.27-0.49-0.45-0.83-0.51l-19.85-3.05C725.79,137.22,725.73,137.21,725.66,137.21z"/>
			</g>
		</g>
		<g>
			<g>
				<path class="st0" d="M901.63,338.53l6.02,19.16c0.28,0.89,1.23,1.39,2.12,1.11l52.45-16.49c0.89-0.28,1.39-1.23,1.11-2.12
					l-6.02-19.16c-0.28-0.89-1.23-1.39-2.12-1.11l-52.45,16.49C901.85,336.69,901.35,337.64,901.63,338.53z"/>
			</g>
			<g>
				<path class="st0" d="M909.27,359.3c-0.34,0-0.67-0.08-0.97-0.24c-0.5-0.26-0.87-0.7-1.04-1.24l-6.02-19.16
					c-0.35-1.12,0.27-2.3,1.39-2.65l52.45-16.49c0.54-0.17,1.11-0.12,1.62,0.14c0.5,0.26,0.87,0.7,1.04,1.24l6.02,19.16
					c0.35,1.12-0.27,2.3-1.39,2.65l-52.45,16.49C909.69,359.26,909.48,359.3,909.27,359.3z M902.04,338.4l6.02,19.16
					c0.1,0.32,0.32,0.58,0.63,0.74c0.3,0.16,0.64,0.19,0.96,0.08l52.45-16.49c0.67-0.21,1.04-0.92,0.83-1.59l-6.02-19.16
					c-0.1-0.32-0.32-0.58-0.63-0.74c-0.3-0.16-0.64-0.19-0.96-0.08l-52.45,16.49C902.2,337.03,901.83,337.74,902.04,338.4
					L902.04,338.4z"/>
			</g>
		</g>
		<g>
			<g>
				<path class="st0" d="M769.29,207.87l18.62,7.52c0.86,0.35,1.85-0.07,2.2-0.94l20.59-50.98c0.35-0.86-0.07-1.85-0.94-2.2
					l-18.63-7.52c-0.86-0.35-1.85,0.07-2.2,0.94l-20.59,50.98C768.01,206.53,768.43,207.51,769.29,207.87z"/>
			</g>
			<g>
				<path class="st0" d="M788.54,215.93c-0.27,0-0.53-0.05-0.8-0.15l-18.62-7.52c-0.52-0.21-0.93-0.62-1.16-1.13
					c-0.22-0.52-0.23-1.09-0.02-1.62l20.59-50.98c0.44-1.08,1.67-1.61,2.75-1.17l18.62,7.52c1.08,0.44,1.61,1.67,1.17,2.75
					l-20.59,50.98c-0.21,0.52-0.62,0.93-1.13,1.16C789.11,215.88,788.83,215.93,788.54,215.93z M790.52,154.04
					c-0.5,0-0.98,0.3-1.18,0.8l-20.59,50.98c-0.13,0.31-0.13,0.66,0.01,0.97s0.38,0.55,0.69,0.68l18.62,7.52
					c0.31,0.13,0.66,0.13,0.97-0.01c0.31-0.14,0.55-0.38,0.68-0.69l20.59-50.98c0.26-0.65-0.05-1.39-0.7-1.65l-18.62-7.52
					C790.83,154.07,790.67,154.04,790.52,154.04z"/>
			</g>
		</g>
		<g>
			<g>
				<path class="st0" d="M811.82,233.21l16.55,11.37c0.77,0.53,1.83,0.33,2.35-0.44l33.43-48.66c0.53-0.77,0.33-1.83-0.44-2.35
					l-16.55-11.37c-0.77-0.53-1.83-0.33-2.35,0.44l-33.43,48.66C810.86,231.63,811.05,232.68,811.82,233.21z"/>
			</g>
			<g>
				<path class="st0" d="M829.33,245.3c-0.41,0-0.83-0.12-1.19-0.37l-16.55-11.37c-0.47-0.32-0.78-0.8-0.88-1.35
					s0.02-1.12,0.34-1.58l33.43-48.66c0.32-0.47,0.8-0.78,1.35-0.88s1.12,0.02,1.58,0.34l16.55,11.37c0.47,0.32,0.78,0.8,0.88,1.35
					c0.1,0.56-0.02,1.12-0.34,1.58l-33.43,48.66C830.67,244.98,830,245.3,829.33,245.3z M846.22,181.88c-0.08,0-0.15,0.01-0.24,0.03
					c-0.33,0.06-0.63,0.25-0.81,0.53l-33.43,48.66c-0.19,0.28-0.26,0.62-0.2,0.95s0.25,0.63,0.53,0.81l16.55,11.37
					c0.58,0.4,1.37,0.25,1.77-0.33l33.43-48.66c0.19-0.28,0.26-0.62,0.2-0.95c-0.06-0.33-0.25-0.63-0.53-0.81l-16.55-11.37
					C846.72,181.96,846.47,181.88,846.22,181.88z"/>
			</g>
		</g>
		<g>
			<g>
				<path class="st0" d="M851.27,264.23l12.95,15.34c0.6,0.71,1.67,0.8,2.39,0.2l43.83-37c0.71-0.6,0.8-1.67,0.2-2.39l-12.95-15.34
					c-0.6-0.71-1.67-0.8-2.39-0.2l-43.83,37C850.75,262.45,850.66,263.52,851.27,264.23z"/>
			</g>
			<g>
				<path class="st0" d="M865.51,280.61c-0.06,0-0.12,0-0.18-0.01c-0.57-0.05-1.07-0.31-1.44-0.74l-12.95-15.34
					c-0.36-0.43-0.54-0.98-0.49-1.54c0.05-0.57,0.31-1.07,0.74-1.44l43.83-37c0.89-0.75,2.22-0.64,2.98,0.25l12.95,15.34
					c0.75,0.89,0.63,2.22-0.25,2.98l-43.83,37C866.49,280.43,866.01,280.61,865.51,280.61z M896.39,224.87
					c-0.29,0-0.58,0.1-0.82,0.3l-43.83,37c-0.26,0.22-0.41,0.52-0.45,0.86c-0.03,0.34,0.08,0.67,0.3,0.92l12.95,15.34
					c0.22,0.26,0.52,0.41,0.86,0.45c0.33,0.03,0.67-0.08,0.92-0.3l43.83-37c0.53-0.45,0.6-1.25,0.15-1.78l-12.95-15.34
					C897.11,225.02,896.75,224.87,896.39,224.87z"/>
			</g>
		</g>
		<g>
			<g>
				<path class="st0" d="M879.05,298.63l9,17.96c0.41,0.84,1.44,1.18,2.27,0.75l51.04-25.58c0.84-0.41,1.18-1.44,0.75-2.27l-9-17.96
					c-0.41-0.84-1.44-1.18-2.27-0.75l-51.04,25.58C878.98,296.78,878.64,297.79,879.05,298.63z"/>
			</g>
			<g>
				<path class="st0" d="M889.57,317.94c-0.23,0-0.45-0.03-0.67-0.11c-0.53-0.18-0.97-0.56-1.23-1.06l-9-17.96
					c-0.25-0.51-0.3-1.07-0.12-1.62c0.18-0.53,0.56-0.97,1.06-1.23l51.05-25.58c1.04-0.52,2.32-0.1,2.83,0.94l9,17.96
					c0.52,1.04,0.1,2.32-0.95,2.84l-51.04,25.58C890.22,317.87,889.9,317.94,889.57,317.94z M931.61,271.02
					c-0.19,0-0.38,0.04-0.57,0.14l-51.05,25.58c-0.63,0.31-0.88,1.07-0.57,1.7l9,17.96c0.15,0.3,0.41,0.53,0.74,0.63
					c0.32,0.11,0.67,0.08,0.96-0.07l51.04-25.58c0.63-0.31,0.88-1.07,0.57-1.7l-9-17.95C932.52,271.28,932.07,271.02,931.61,271.02z
					"/>
			</g>
		</g>
		<g>
			<g>
				<path class="st0" d="M588.6,377.73c-1.11-0.87-1.6-2.18-1.57-3.46l-171.66-95.41l-2.47,4.44l242.5,134.79l2.47-4.44
					l-18.16-10.09C621.62,397.13,603.95,389.7,588.6,377.73z"/>
			</g>
		</g>
	</g>
	<g>
		<g>
			<path class="st1" d="M309.61,496.17c12.03-26.96,75.29-168.6,164.7-168.47c77.22,0.12,170.18,105.99,168.39,262.94
				c-112.89-18.82-196.48-15.57-254.51-8c-25.81,3.36-70.85,10.74-87.74-11.7C294.56,563.13,287.52,545.64,309.61,496.17z"/>
			<path class="st2" d="M646.29,594.85l-4.2-0.7c-91.6-15.27-176.87-17.96-253.42-7.99c-1.36,0.18-2.77,0.36-4.24,0.56
				c-27.73,3.69-69.64,9.28-86.92-13.67c-11.07-14.69-8.2-40.31,8.77-78.31l0,0c28.46-63.73,88.11-170.6,167.9-170.6
				c0.05,0,0.08,0,0.14,0c30.33,0.04,62.77,15.66,91.34,43.97c24.05,23.83,44.13,55.52,58.07,91.63
				c15.53,40.22,23.13,84.27,22.61,130.93L646.29,594.85z M483.15,573.15c49.44,0,101.58,4.44,155.93,13.29
				c0.02-84.89-29.22-164.39-78.61-213.32c-27.2-26.95-57.8-41.82-86.18-41.86c-0.04,0-0.08,0-0.12,0
				c-75.66,0-133.48,104.2-161.23,166.33l-3.34-1.42l3.34,1.42c-15.62,34.97-18.84,58.94-9.58,71.24
				c14.73,19.55,55.64,14.1,80.08,10.84c1.47-0.2,2.89-0.38,4.25-0.56C418.21,575.14,450.07,573.15,483.15,573.15z"/>
		</g>
		<g>
			<path class="st3" d="M309.61,496.17c12.03-26.96,75.29-168.6,164.7-168.47c77.22,0.12,170.18,105.99,168.39,262.94
				c-112.89-18.82-196.48-15.57-254.51-8c-25.81,3.36-70.85,10.74-87.74-11.7C294.56,563.13,287.52,545.64,309.61,496.17z"/>
			<path class="st3" d="M646.29,594.85l-4.2-0.7c-91.6-15.27-176.87-17.96-253.42-7.99c-1.36,0.18-2.77,0.36-4.24,0.56
				c-27.73,3.69-69.64,9.28-86.92-13.67c-11.07-14.69-8.2-40.31,8.77-78.31l0,0c28.46-63.73,88.11-170.6,167.9-170.6
				c0.05,0,0.08,0,0.14,0c30.33,0.04,62.77,15.66,91.34,43.97c24.05,23.83,44.13,55.52,58.07,91.63
				c15.53,40.22,23.13,84.27,22.61,130.93L646.29,594.85z M483.15,573.15c49.44,0,101.58,4.44,155.93,13.29
				c0.02-84.89-29.22-164.39-78.61-213.32c-27.2-26.95-57.8-41.82-86.18-41.86c-0.04,0-0.08,0-0.12,0
				c-75.66,0-133.48,104.2-161.23,166.33l-3.34-1.42l3.34,1.42c-15.62,34.97-18.84,58.94-9.58,71.24
				c14.73,19.55,55.64,14.1,80.08,10.84c1.47-0.2,2.89-0.38,4.25-0.56C418.21,575.14,450.07,573.15,483.15,573.15z"/>
		</g>
		<g>
			<path class="st4" d="M309.61,496.17c12.03-26.96,75.29-168.6,164.7-168.47c77.22,0.12,170.18,105.99,168.39,262.94
				c-112.89-18.82-196.48-15.57-254.51-8c-25.81,3.36-70.85,10.74-87.74-11.7C294.56,563.13,287.52,545.64,309.61,496.17z"/>
			<path class="st4" d="M646.29,594.85l-4.2-0.7c-91.6-15.27-176.87-17.96-253.42-7.99c-1.36,0.18-2.77,0.36-4.24,0.56
				c-27.73,3.69-69.64,9.28-86.92-13.67c-11.07-14.69-8.2-40.31,8.77-78.31l0,0c28.46-63.73,88.11-170.6,167.9-170.6
				c0.05,0,0.08,0,0.14,0c30.33,0.04,62.77,15.66,91.34,43.97c24.05,23.83,44.13,55.52,58.07,91.63
				c15.53,40.22,23.13,84.27,22.61,130.93L646.29,594.85z M483.15,573.15c49.44,0,101.58,4.44,155.93,13.29
				c0.02-84.89-29.22-164.39-78.61-213.32c-27.2-26.95-57.8-41.82-86.18-41.86c-0.04,0-0.08,0-0.12,0
				c-75.66,0-133.48,104.2-161.23,166.33l-3.34-1.42l3.34,1.42c-15.62,34.97-18.84,58.94-9.58,71.24
				c14.73,19.55,55.64,14.1,80.08,10.84c1.47-0.2,2.89-0.38,4.25-0.56C418.21,575.14,450.07,573.15,483.15,573.15z"/>
		</g>
	</g>
	<g>
		<g>
			<path class="st5" d="M644.06,608.32c-24.06,0-47.88-2.17-68.88-6.27c-28.28-5.53-71-13.87-83.56-42.55
				c-11.47-26.22,10.49-62.7,54.24-135.38c7.74-12.85,28.64-42.84,66.59-97.26c48.16-69.07,54.88-77.91,64.89-78.54
				c0.42-0.03,0.85-0.04,1.27-0.04c5.41,0,12.92,2.46,27.61,20.72c16.79,20.87,39.7,58.46,70.03,114.95
				c40.83,76.01,65.47,121.9,59.33,142.72c-7.5,25.42-31.51,46.63-69.43,61.3C732.23,601.1,688.88,608.32,644.06,608.32
				C644.06,608.32,644.06,608.32,644.06,608.32z"/>
		</g>
		<g>
			<path class="st6" d="M678.61,251.77c4.29,0,10.99,2.2,24.82,19.39c16.65,20.7,39.44,58.12,69.67,114.41
				c40.41,75.25,64.8,120.66,59.06,140.14c-9.07,30.77-41.62,49.08-67.33,59.03c-33.51,12.96-76.4,20.1-120.78,20.1
				c-23.83,0-47.4-2.15-68.18-6.2c-14.38-2.81-32.28-6.3-47.8-12.67c-17.22-7.06-28.07-16.17-33.18-27.84
				c-5.03-11.49-3.24-25.42,6-46.55c9.4-21.52,25.61-48.43,48.03-85.7c7.68-12.76,28.55-42.7,66.46-97.06
				c23.47-33.67,38.34-54.88,47.6-65.95c8.97-10.72,11.82-10.9,14.58-11.08C677.94,251.78,678.28,251.77,678.61,251.77
				 M678.61,244.81c-0.51,0-1.01,0.02-1.5,0.05c-11.84,0.75-17.98,8.88-67.6,80.05c-39.28,56.33-59.07,84.77-66.71,97.45
				c-44.42,73.79-66.62,110.68-54.45,138.51c13.29,30.37,56.6,38.82,86.13,44.59c21.5,4.19,45.3,6.33,69.58,6.33
				c86.02,0,178.05-26.85,194.94-84.17c6.4-21.73-15.51-63.21-59.6-145.31C712.49,257.76,692.22,244.81,678.61,244.81L678.61,244.81
				z"/>
		</g>
	</g>
	<g>
		<path class="st7" d="M945.15,400.76c-67.4-9.55-138.66,50.69-165.46,73.35c-1.18,1-2.19,1.88-2.19,1.88
			c-20.62,17.78-62.26,60.9-57.59,86.73c6.27,34.7,101.38,48.97,173.67,44.77c50.18-2.92,155.42-9.04,171.34-65
			C1079.75,490.33,1012.62,410.32,945.15,400.76z"/>
		<path class="st8" d="M868.41,611.8c-30.55,0-61.78-3.02-87.16-8.59c-27.35-6.01-60.8-17.8-64.79-39.85
			c-6.1-33.75,56.14-87.87,58.79-90.16l0.02-0.02c0.13-0.12,0.38-0.32,0.69-0.6l0.26-0.23c0.37-0.31,0.8-0.68,1.25-1.07
			c27.15-22.95,99.25-83.9,168.15-74.13c39.22,5.56,82.14,35.72,106.79,75.06c16.02,25.57,21.65,50.88,15.86,71.26
			c-16.62,58.41-123.25,64.61-174.49,67.59C885.46,611.57,876.96,611.8,868.41,611.8z M779.16,479.26
			c-24.82,21.55-59.76,60.96-55.82,82.79c5.45,30.16,93.98,46.26,170.05,41.82c49.64-2.89,152.95-8.89,168.18-62.4
			c5.22-18.33-0.11-41.52-15.02-65.3c-23.6-37.67-64.54-66.54-101.87-71.83l0,0c-65.88-9.34-136.27,50.15-162.76,72.56
			c-1.01,0.85-1.87,1.6-2.11,1.81L779.16,479.26z"/>
	</g>
	<g>
		<path class="st0" d="M312.67,657.98c12.41,0,19.11,4.64,19.11,13.93c0,10.43-6.32,16.67-21.85,16.67h-47.43l10.12-13.09h38.52
			c3.73,0,5.4-1.07,5.4-3.73c0-2.59-1.67-3.65-5.4-3.65h-27.71c-13.09,0-19.11-5.86-19.11-14.62c0-9.59,6.39-15.83,21.85-15.83
			h44.23l-10.12,13.25h-35.32c-3.65,0-5.4,0.91-5.4,3.5s1.75,3.58,5.4,3.58H312.67z"/>
		<path class="st0" d="M356.53,688.59l9.52-13.09h12.79c3.04,0,6.62,0,9.06,0.15c-1.37-1.83-3.5-4.95-5.18-7.38l-9.13-13.47
			l-23.9,33.8h-18.65l32.66-46.06c2.13-2.97,5.25-5.71,10.2-5.71c4.72,0,7.84,2.51,10.05,5.71l31.82,46.06H356.53z"/>
		<path class="st0" d="M466.68,686.68l-31.21-28.01v29.92h-14.31v-42.25c0-6.78,4.11-9.52,8.6-9.52c1.9,0,3.81,0.46,6.32,2.74
			l31.21,28.01v-29.92h14.39v42.17c0,6.78-4.11,9.59-8.68,9.59C471.02,689.42,469.12,688.97,466.68,686.68z"/>
		<path class="st0" d="M554.23,637.66l-10.2,13.25h-18.19v37.68h-15.76V650.9h-23.9l10.2-13.25H554.23z"/>
		<path class="st0" d="M624.65,663.08c0,18.19-12.48,26.34-37.23,26.34c-24.82,0-37.23-8.14-37.23-26.34s12.41-26.26,37.23-26.26
			C612.17,636.82,624.65,644.89,624.65,663.08z M608.97,663.08c0-10.96-5.71-13.02-21.54-13.02c-15.83,0-21.54,2.05-21.54,13.02
			c0,10.96,5.71,13.09,21.54,13.09C603.26,676.18,608.97,674.05,608.97,663.08z"/>
		<path class="st0" d="M679.85,657.98c12.41,0,19.11,4.64,19.11,13.93c0,10.43-6.32,16.67-21.85,16.67h-47.43l10.12-13.09h38.52
			c3.73,0,5.4-1.07,5.4-3.73c0-2.59-1.67-3.65-5.4-3.65h-27.71c-13.09,0-19.11-5.86-19.11-14.62c0-9.59,6.4-15.83,21.85-15.83h44.23
			l-10.13,13.25h-35.32c-3.65,0-5.4,0.91-5.4,3.5s1.75,3.58,5.4,3.58H679.85z"/>
		<path class="st0" d="M796.93,688.59h-15.68v-19.64h-30.3v19.64h-15.83v-50.93h15.83v18.04h30.3v-18.04h15.68V688.59z"/>
		<path class="st0" d="M822.59,688.59h-15.76v-50.93h15.76V688.59z"/>
		<path class="st0" d="M863.85,656.77h32.58v31.82h-34.94c-17.66,0-30.68-11.19-30.68-25.96c0-14.92,13.02-24.97,30.68-24.97h36.46
			l-10.2,13.25h-26.26c-8.53,0-15,5.18-15,12.41c0,7.38,6.24,12.18,15,12.18h19.26v-7.38h-26.34L863.85,656.77z"/>
		<path class="st0" d="M967.31,688.59h-15.68v-19.64h-30.3v19.64h-15.83v-50.93h15.83v18.04h30.3v-18.04h15.68V688.59z"/>
		<path class="st0" d="M1040.24,637.66l-10.2,13.25h-18.19v37.68h-15.76V650.9h-23.9l10.2-13.25H1040.24z"/>
		<path class="st0" d="M1092.24,657.98c12.41,0,19.11,4.64,19.11,13.93c0,10.43-6.32,16.67-21.85,16.67h-47.43l10.13-13.09h38.52
			c3.73,0,5.41-1.07,5.41-3.73c0-2.59-1.67-3.65-5.41-3.65H1063c-13.09,0-19.11-5.86-19.11-14.62c0-9.59,6.39-15.83,21.85-15.83
			h44.23l-10.13,13.25h-35.32c-3.65,0-5.41,0.91-5.41,3.5s1.75,3.58,5.41,3.58H1092.24z"/>
	</g>
	<g>
		<path class="st0" d="M652.68,79.06h-14.06l-7.56-8.98h-16.14v8.98h-10.51V61.71h29.54c3.25,0,5.79-1.47,5.79-3.81
			c0-2.64-2.18-3.96-5.79-3.96h-29.54l6.85-8.83h21.82c7.71,0,17.46,2.44,17.46,12.13c0,5.28-3.3,9.64-8.88,10.76
			c1.17,0.86,2.44,2.08,4.77,4.47L652.68,79.06z"/>
		<path class="st0" d="M700.54,64.24c0,10.25-7.05,15.38-21.16,15.38c-16.34,0-23.4-5.13-23.4-15.38V45.11h10.45v19.13
			c0,5.02,2.13,6.65,12.94,6.65c8.07,0,10.61-1.88,10.61-6.65V45.11h10.56V64.24z"/>
		<path class="st0" d="M748.65,45.11l-6.8,8.83h-12.13v25.12h-10.5V53.94h-15.94l6.8-8.83H748.65z"/>
		<path class="st0" d="M755.5,79.06l6.34-8.73h8.53c2.03,0,4.42,0,6.04,0.1c-0.91-1.22-2.33-3.3-3.45-4.92l-6.09-8.98l-15.94,22.53
			H738.5l21.77-30.7c1.42-1.98,3.5-3.81,6.8-3.81c3.15,0,5.23,1.67,6.7,3.81l21.21,30.7H755.5z"/>
	</g>
</g>
<g>
</g>
<g>
</g>
<g>
</g>
<g>
</g>
<g>
</g>
<g>
</g>
<g>
</g>
<g>
</g>
<g>
</g>
<g>
</g>
<g>
</g>
<g>
</g>
<g>
</g>
<g>
</g>
<g>
</g>
</svg>
