<svg width="62" height="62" viewBox="0 0 62 62" fill="none" xmlns="http://www.w3.org/2000/svg">
<path d="M13.569 16.8281C18.4291 14.0232 24.1432 13.0806 29.6468 14.176C35.1503 15.2715 40.068 18.3302 43.4837 22.7824C46.8994 27.2345 48.5802 32.7766 48.2129 38.3761C47.8457 43.9755 45.4555 49.2506 41.4875 53.2185C37.5196 57.1864 32.2446 59.5767 26.6451 59.9439C21.0456 60.3111 15.5036 58.6304 11.0514 55.2147C6.59921 51.799 3.5405 46.8813 2.44507 41.3777C1.34964 35.8742 2.2922 30.1601 5.09715 25.2999" stroke="white" stroke-width="3" stroke-linecap="round"/>
<path d="M60.436 17.6256C60.2552 17.7349 60.0464 17.7941 59.8315 17.7941C59.6166 17.7941 59.4078 17.7349 59.2269 17.6256H60.436ZM61 15.6256H58.6629V7.81621L61 5.47911V15.6256ZM56.5209 1L54.1838 3.33711H46.3744V1H56.5209ZM44.3744 2.77314C44.2651 2.59225 44.2059 2.38345 44.2059 2.16855C44.2059 1.95365 44.2651 1.74486 44.3744 1.56396V2.77314ZM56.6629 5.33711V6.98778L42.5698 21.0809L40.9191 19.4302L55.0122 5.33711H56.6629ZM58.6629 3.33711V3.16855H58.8315V3.33711H58.6629Z" stroke="white" stroke-width="2"/>
</svg>
