<svg width="44" height="43" viewBox="0 0 44 43" fill="none" xmlns="http://www.w3.org/2000/svg">
<path d="M22.45 0C18.1977 0 14.0409 1.26095 10.5052 3.6234C6.96957 5.98585 4.21386 9.34369 2.58658 13.2723C0.959297 17.2009 0.533526 21.5238 1.36311 25.6944C2.19269 29.865 4.24037 33.696 7.24719 36.7028C10.254 39.7096 14.085 41.7573 18.2555 42.5869C22.4261 43.4165 26.7491 42.9907 30.6777 41.3634C34.6063 39.7361 37.9641 36.9804 40.3266 33.4448C42.689 29.9091 43.95 25.7523 43.95 21.5C43.9443 15.7996 41.6773 10.3343 37.6465 6.30349C33.6157 2.27269 28.1504 0.00569187 22.45 0ZM35.2188 16.5829V17.9718C35.2189 18.0781 35.1976 18.1834 35.1563 18.2813C35.115 18.3793 35.0544 18.4679 34.9783 18.5421C34.9021 18.6162 34.8119 18.6744 34.7129 18.7131C34.6139 18.7518 34.5081 18.7702 34.4018 18.7673C32.1319 18.6065 29.9603 17.7776 28.1604 16.3851V26.5503C28.1601 27.6754 27.9356 28.7891 27.5 29.8265C27.0644 30.8638 26.4265 31.8039 25.6234 32.5918C24.8131 33.3995 23.8503 34.0378 22.7909 34.4697C21.7316 34.9015 20.5968 35.1183 19.4529 35.1073C17.1522 35.1033 14.9442 34.2007 13.2996 32.5918C12.2534 31.5371 11.4998 30.2281 11.113 28.7937C10.7262 27.3593 10.7196 25.8489 11.0937 24.4111C11.4355 23.0308 12.1257 21.7623 13.0996 20.7281C13.826 19.8404 14.7415 19.1262 15.7794 18.6378C16.8172 18.1493 17.9511 17.899 19.0981 17.9052H20.8611V21.5666C20.8619 21.673 20.84 21.7783 20.7969 21.8755C20.7538 21.9727 20.6904 22.0596 20.6111 22.1304C20.5318 22.2012 20.4382 22.2543 20.3368 22.2861C20.2353 22.3179 20.1282 22.3277 20.0226 22.3148C18.999 22.0074 17.896 22.1094 16.9461 22.5993C15.9962 23.0892 15.2736 23.9289 14.9307 24.9412C14.5877 25.9535 14.6513 27.0594 15.1078 28.0258C15.5644 28.9922 16.3784 29.7435 17.3781 30.1215C17.9586 30.4547 18.6079 30.6504 19.2744 30.6955C19.7904 30.717 20.3064 30.6525 20.7966 30.4977C21.6153 30.2222 22.3275 29.6978 22.8336 28.9978C23.3397 28.2978 23.6145 27.4571 23.6196 26.5933V8.0711C23.6193 7.96956 23.6391 7.86896 23.6777 7.77506C23.7164 7.68117 23.7732 7.59583 23.8449 7.52393C23.9166 7.45203 24.0018 7.39498 24.0956 7.35606C24.1894 7.31713 24.2899 7.2971 24.3914 7.2971H27.4337C27.6315 7.29682 27.8219 7.37251 27.9655 7.50854C28.1091 7.64457 28.1951 7.83055 28.2055 8.0281C28.3168 8.97664 28.6182 9.89299 29.0918 10.7223C29.5654 11.5517 30.2014 12.277 30.9618 12.8548C31.9897 13.6265 33.2106 14.0996 34.49 14.2222C34.6816 14.2386 34.8608 14.3239 34.9944 14.4622C35.128 14.6006 35.207 14.7827 35.2167 14.9747L35.2188 16.5829Z" fill="white"/>
</svg>
