<svg width="54" height="77" viewBox="0 0 54 77" fill="none" xmlns="http://www.w3.org/2000/svg">
<path d="M19.0755 62.6112V59.254H23.3255V60.9326V62.6112H19.0755ZM25.3255 59.254H26.0041V59.9326H25.3255V59.254ZM25.3255 61.9326H26.0041V62.6112H25.3255V61.9326ZM28.6827 53.004V57.254H27.0041H25.3255V53.004H28.6827ZM28.0041 59.9326V59.254H28.6827V59.9326H28.0041ZM28.0041 61.9326H28.6827V62.6112H28.0041V61.9326ZM28.3523 74.4326C28.3035 74.4984 28.2496 74.5609 28.191 74.6195C27.8762 74.9343 27.4493 75.1111 27.0041 75.1111C26.5589 75.1111 26.132 74.9343 25.8172 74.6195C25.7585 74.5609 25.7047 74.4984 25.6559 74.4326H28.3523ZM28.6827 72.4326H25.3255V64.6112H27.0041H28.6827V72.4326ZM36.9327 59.5844C36.9984 59.6332 37.061 59.687 37.1196 59.7457C37.4344 60.0604 37.6112 60.4874 37.6112 60.9326C37.6112 61.3778 37.4344 61.8047 37.1196 62.1195C37.061 62.1781 36.9984 62.232 36.9327 62.2808V59.5844ZM34.9327 59.254V62.6112H30.6827V60.9326V59.254H34.9327ZM17.0755 62.2808C17.0097 62.232 16.9472 62.1781 16.8886 62.1195C16.5738 61.8047 16.397 61.3778 16.397 60.9326C16.397 60.4874 16.5738 60.0604 16.8886 59.7457C16.9472 59.687 17.0097 59.6332 17.0755 59.5844V62.2808Z" stroke="white" stroke-width="2"/>
<path d="M14.5042 5.34703C19.757 2.31564 25.9327 1.29709 31.8808 2.48112C37.8289 3.66515 43.1437 6.97102 46.8353 11.7829C50.5268 16.5948 52.3433 22.5845 51.9464 28.6363C51.5494 34.6881 48.9661 40.3892 44.6777 44.6777C40.3892 48.9661 34.6881 51.5494 28.6363 51.9464C22.5845 52.3433 16.5948 50.5268 11.7829 46.8353C6.97102 43.1437 3.66515 37.8289 2.48112 31.8808C1.29709 25.9327 2.31564 19.757 5.34703 14.5042" stroke="white" stroke-width="3" stroke-linecap="round"/>
</svg>
