<svg width="218" height="205" viewBox="0 0 218 205" fill="none" xmlns="http://www.w3.org/2000/svg">
<path d="M51.0938 19.625C49.2135 19.625 47.6875 21.053 47.6875 22.8125V32.375H37.4688C35.5885 32.375 34.0625 33.803 34.0625 35.5625V179H23.8438C21.9635 179 20.4375 180.428 20.4375 182.188C20.4375 183.947 21.9635 185.375 23.8438 185.375H37.4688H78.3438H119.219H153.281H194.156C196.036 185.375 197.562 183.947 197.562 182.188C197.562 180.428 196.036 179 194.156 179H156.688V64.25H163.5V99.3125C163.5 101.072 165.026 102.5 166.906 102.5H194.156C196.036 102.5 197.562 101.072 197.562 99.3125V41.9375C197.562 40.178 196.036 38.75 194.156 38.75H166.906C165.026 38.75 163.5 40.178 163.5 41.9375V45.125H156.688V35.5625C156.688 33.803 155.161 32.375 153.281 32.375H143.062V22.8125C143.062 21.053 141.536 19.625 139.656 19.625H51.0938ZM54.5 26H136.25V32.375H54.5V26ZM40.875 38.75H51.0938H139.656H149.875V48.3125V61.0625V179H122.625V147.125H126.031C127.911 147.125 129.438 145.697 129.438 143.938C129.438 142.178 127.911 140.75 126.031 140.75H119.219H78.3438H71.5312C69.651 140.75 68.125 142.178 68.125 143.938C68.125 145.697 69.651 147.125 71.5312 147.125H74.9375V179H40.875V38.75ZM51.0938 45.125C49.2135 45.125 47.6875 46.553 47.6875 48.3125V67.4375C47.6875 69.197 49.2135 70.625 51.0938 70.625H71.5312C73.4115 70.625 74.9375 69.197 74.9375 67.4375V48.3125C74.9375 46.553 73.4115 45.125 71.5312 45.125H51.0938ZM85.1562 45.125C83.276 45.125 81.75 46.553 81.75 48.3125V67.4375C81.75 69.197 83.276 70.625 85.1562 70.625H105.594C107.474 70.625 109 69.197 109 67.4375V48.3125C109 46.553 107.474 45.125 105.594 45.125H85.1562ZM119.219 45.125C117.339 45.125 115.812 46.553 115.812 48.3125V67.4375C115.812 69.197 117.339 70.625 119.219 70.625H139.656C141.536 70.625 143.062 69.197 143.062 67.4375V48.3125C143.062 46.553 141.536 45.125 139.656 45.125H119.219ZM170.312 45.125H190.75V96.125H170.312V61.0625V48.3125V45.125ZM54.5 51.5H68.125V64.25H54.5V51.5ZM88.5625 51.5H102.188V64.25H88.5625V51.5ZM122.625 51.5H136.25V64.25H122.625V51.5ZM156.688 51.5H163.5V57.875H156.688V51.5ZM180.531 51.5C178.651 51.5 177.125 52.928 177.125 54.6875V86.5625C177.125 88.322 178.651 89.75 180.531 89.75C182.411 89.75 183.938 88.322 183.938 86.5625V54.6875C183.938 52.928 182.411 51.5 180.531 51.5ZM51.0938 77C49.2135 77 47.6875 78.428 47.6875 80.1875V99.3125C47.6875 101.072 49.2135 102.5 51.0938 102.5H71.5312C73.4115 102.5 74.9375 101.072 74.9375 99.3125V80.1875C74.9375 78.428 73.4115 77 71.5312 77H51.0938ZM85.1562 77C83.276 77 81.75 78.428 81.75 80.1875V99.3125C81.75 101.072 83.276 102.5 85.1562 102.5H105.594C107.474 102.5 109 101.072 109 99.3125V80.1875C109 78.428 107.474 77 105.594 77H85.1562ZM119.219 77C117.339 77 115.812 78.428 115.812 80.1875V99.3125C115.812 101.072 117.339 102.5 119.219 102.5H139.656C141.536 102.5 143.062 101.072 143.062 99.3125V80.1875C143.062 78.428 141.536 77 139.656 77H119.219ZM54.5 83.375H68.125V96.125H54.5V83.375ZM88.5625 83.375H102.188V96.125H88.5625V83.375ZM122.625 83.375H136.25V96.125H122.625V83.375ZM51.0938 108.875C49.2135 108.875 47.6875 110.303 47.6875 112.062V131.188C47.6875 132.947 49.2135 134.375 51.0938 134.375H71.5312C73.4115 134.375 74.9375 132.947 74.9375 131.188V112.062C74.9375 110.303 73.4115 108.875 71.5312 108.875H51.0938ZM85.1562 108.875C83.276 108.875 81.75 110.303 81.75 112.062V131.188C81.75 132.947 83.276 134.375 85.1562 134.375H105.594C107.474 134.375 109 132.947 109 131.188V112.062C109 110.303 107.474 108.875 105.594 108.875H85.1562ZM119.219 108.875C117.339 108.875 115.812 110.303 115.812 112.062V131.188C115.812 132.947 117.339 134.375 119.219 134.375H139.656C141.536 134.375 143.062 132.947 143.062 131.188V112.062C143.062 110.303 141.536 108.875 139.656 108.875H119.219ZM54.5 115.25H68.125V128H54.5V115.25ZM88.5625 115.25H102.188V128H88.5625V115.25ZM122.625 115.25H136.25V128H122.625V115.25ZM81.75 147.125H95.375V179H81.75V147.125ZM102.188 147.125H115.812V179H102.188V147.125Z" fill="#FF4D00"/>
</svg>
